# xmcd CD database file generated by OrangeCD 5.2
#
# Track frame offsets:
#	150
#	14970
#	31275
#	46722
#	65122
#	81665
#	101382
#	115462
#	129545
#	154705
#	165325
#	181792
#	194880
#	206980
#	221412
#	236775
#	251027
#	266392
#	283657
#	301112
#
# Disc length: 4206 seconds
#
# Revision: 2
# Processed by: cddbd v1.5.1PL0 Copyright (c) Steve Scherf et al.
# Submitted via: OrangeCD 5.2
#
DISCID=2a106c14
DTITLE=Downchild Blues Band - It's Been So Long - Ready To Go
DYEAR=1997
DGENRE=Blues
TTITLE0=Bop 'Til I Drop
TTITLE1=Where Have You Gone
TTITLE2=It's Been So Long
TTITLE3=Who'll Do The Leavin'
TTITLE4=My Baby She's Alright
TTITLE5=Don't Mind Dyin'
TTITLE6=Not This Time
TTITLE7=Bring It On Back
TTITLE8=Off The Cuff
TTITLE9=One More Chance
TTITLE10=Rock Me Baby
TTITLE11=The Slide
TTITLE12=Do The Parrott
TTITLE13=Lazy Woman
TTITLE14=My Baby
TTITLE15=Caldonia
TTITLE16=My Aching Heart
TTITLE17=Downchild Shuffle
TTITLE18=Heart Fixing Business
TTITLE19=Old Ma Bell
EXTD=
EXTT0=It's Been So Long
EXTT1=It's Been So Long
EXTT2=It's Been So Long
EXTT3=It's Been So Long
EXTT4=It's Been So Long
EXTT5=It's Been So Long
EXTT6=It's Been So Long
EXTT7=It's Been So Long
EXTT8=It's Been So Long
EXTT9=Ready To Go
EXTT10=Ready To Go
EXTT11=Ready To Go
EXTT12=Ready To Go
EXTT13=Ready To Go
EXTT14=Ready To Go
EXTT15=Ready To Go
EXTT16=Ready To Go
EXTT17=Ready To Go
EXTT18=Ready To Go
EXTT19=Ready To Go
PLAYORDER=
